<svg xmlns="http://www.w3.org/2000/svg" width="488.118" height="182.92" viewBox="0 0 488.118 182.92"><path fill="#ED174F" d="M473.486 14.219c2.45-2.942 2.287-6.72 1.799-9.193-7.015-4.669-15.639-6.123-23.688-4.199 8.399.875 16.367 6.021 21.889 13.392m-22.037 2.055c10.9 3.152 16.107 2.338 19.582.081-6.111-8.349-15.533-14.429-23.549-14.234-3.013 1.194-5.89 2.893-8.488 5.118-3.765 3.227-6.533 7.189-8.29 11.481 3.703-3.032 10.124-5.509 20.745-2.446m35.388 3.231c-1.357 2.291-3.424 5.006-6.979 7.836.713 2.738 1.101 5.519 1.163 8.275 2.442-.104 4.691.527 6.724 2.288 1.597-6.022 1.333-12.47-.908-18.399m-11.509-2.587c1.407 2.249 2.586 4.653 3.505 7.174 3.091-2.226 5.379-4.646 6.841-7.271l-.275-.504.008-.012c-1.047-2.021-2.339-3.959-3.882-5.767-1.202-1.407-2.505-2.664-3.897-3.792.569 2.824.693 6.996-2.3 10.172m5.661 21.443c-.291 5.909-2.036 11.621-5.076 16.492.795-.559 1.563-1.152 2.315-1.792 4.227-3.614 7.182-8.143 8.872-13.036-1.252-.873-3.35-1.9-6.111-1.664m-14.076 11.346c-5.793 7.674-13.75 8.856-18.919 8.659 7.697 2.889 16.383 2.563 23.929-1.151 3.793-5.029 5.887-11.432 6.111-18.14-3.377 1.38-6.759 4.855-11.121 10.632m-37.062-10.45c.95-.144 1.881-.29 2.78-.434 19.629-3.188 34.24-7.402 43.445-12.925l-.104-.313c-.783-2.276-1.885-4.494-3.176-6.607-3.921 2.605-9.415 4.009-20.09 1.209-21.01-5.51-23.944 8.396-24.243 10.253l-.004.256c-39.909 9.686-115.403 14.064-139.762 15.274l-.147.701c36.419 1.261 104.316-1.807 141.301-7.414m34.003 8.299c5.84-5.863 9.233-10.152 14.157-11.463-.104-2.237-.438-4.482-.961-6.704-7.864 5.23-21.351 10.644-45.307 14.452.012.023-1.861.313-2.815.434-9.907 1.466-21.517 2.676-35.146 3.502-28.85 2.365-58.987 3.626-90.008 3.626-104.557 0-199.164-14.271-267.521-37.296l-.27 1.09c67.758 26.573 169.872 43.496 284.103 43.496 41.328 0 81.059-2.215 118.172-6.298.038.039 14.789 6.01 25.596-4.839"/><path fill="#fff" d="M13.083 23.897c-7.214 0-13.083 5.86-13.083 13.045v96.511c0 7.2 5.869 13.052 13.083 13.052h28.458c7.203 0 13.063-5.859 13.063-13.067l.016-96.495c0-7.186-5.861-13.045-13.056-13.045h-28.481z"/><path fill="#0067B1" d="M215.883 149.859l-.19.791c108.136 9.097 211.405 32.27 211.405 32.27l2.009-8.31c-42.212-7.282-124.597-19.9-213.224-24.751"/><path fill="#fff" d="M41.939 27.307h-28.485c-5.322 0-9.657 4.327-9.657 9.64v96.511c0 5.293 4.335 9.636 9.657 9.636h28.462c5.332 0 9.632-4.293 9.632-9.655v-96.493c0-5.312-4.3-9.639-9.609-9.639"/><path fill="#0067B1" d="M40.14 129.079c-1.012-4.207-4.372-6.778-2.66-8.132-.397-1.423-1.272-3.164-1.227-3.145-5.21-3.005-9.7-7.864-10.446-8.577-.898-.989-2.458-2.001-2.757-2.812-1.266-1.147-7.432-9.88-8.818-13.079l-2.519-.353c-1.134-4.642-4.899-8.547-5.01-13.188-.052-1.775.793-5.537 1.096-6.281.306-.757 1.762-1.997 1.762-1.997v-1.261c-5.442.179-3.877-.403-4.812-2.528-.679-1.462-.213-1.764.064-2.796.702-2.981 3.141-7.619 4.129-9.725.326-1.066 1.375-3.603 1.375-3.603 4.052-8.274 5.57-7.678 10.371-8.112l.254-.372c4.835-.217 4.05-.597 4.721-5.2-.702.283-.913-1.465-.913-1.465-.386-2.652.715-2.145 1.258-2.211.099-4.335.544-5.728 3.72-6.937h-16.276c-5.32 0-9.655 4.327-9.655 9.636v96.515c0 5.293 4.335 9.64 9.655 9.64h28.487c-3.253-1.761-1.334-5.122-1.239-11.505-1.537-1.372-.5-1.942-.56-2.512"/><path fill="#ED174F" d="M34.915 47.063l2.179 1.478c2.315 1.489 5.179 4.079 4.822 13.037.638 1.966.948 5.805 1.551 7.019 1.2 2.411 2.01 3.967 2.352 6.224 0 0 .353 3.544.799 3.772 2.426.551 1.71.791 2.059 1.226.374.465 1.78.446 1.78 1.741.485.644.826 1.311 1.092 2.017v-46.635c0-5.313-4.3-9.636-9.609-9.636h-9.192c1.452.535 2.295 1.167 2.795 2.155 1.16.094 2.581 2.761.392 6.678.95.679.2 1.629-.467 2.769-.215.349-.446 1-1.098.962-.861 1.756-1.857 3.481-2.604 3.563-.235.279-.397 1.047-.064 1.411 1.132.48 2.49 1.19 3.174 1.83l.039.389zM43.577 95.301c-4.766 0-8.614-3.847-8.614-8.597 0-4.041 2.8-7.434 6.573-8.345-.989-2.474-3.081-6.495-3.682-7.794-.611-1.314-2.001-9.492-2.312-11.098-.062-.361-3.703 2.113-3.74 2.269-.19.201-2.699 6.77-2.804 7.111l-.095 1.108s1.262.155 1.962 2.308c.723 2.152 2.879 10.039 2.879 10.039l-.64.527c2.748 9.094 1.788 13.002 2.982 15.646 1.561 3.754 1.974 3.28 3.259 6.433.965 2.296 1.999 11.323 2.359 11.75 1.458 1.854 2.271 3.296 2.271 4.354 0 1.063-1.27 4.16-.813 5.972.289 1.074.413 3.463.91 3.885 0 0 .444.911.246 1.338l-.155.489c.814 2.865 3.438 7.72-.787 10.248h.076c4.614-.687 8.097-4.657 8.097-9.488v-43.58c-1.242 3.195-4.36 5.425-7.972 5.425"/><path fill="#fff" d="M14.64 121.986v8.512h-.064l-.072-.581-2.291-7.931h-3.271v14.407h2.887v-8.912h.019l.088.508 2.33 8.404h3.254v-14.407zM25.131 128.804v-.027c1.592-.559 1.83-1.885 1.83-3.389 0-2.479-1.187-3.397-3.614-3.397h-4.709v14.406h4.83c2.953 0 3.843-1.854 3.843-4.254 0-1.846-.557-3.052-2.18-3.339m-3.046-4.37h1.023c.814 0 1.042.563 1.042 1.574 0 .899-.111 1.675-1.156 1.675h-.909v-3.249zm.966 9.523h-.965v-3.912h1.041c1.024 0 1.163.945 1.163 1.931 0 1.438-.14 1.981-1.239 1.981"/><path fill="#fff" d="M34.469 121.99h-4.403l-2.668 14.406h3.312l.349-3.161h2.338l.291 3.161h3.498l-2.717-14.406zm-3.07 8.989l.83-6.473.023-.349h.044l.004.349.75 6.473h-1.651z"/><path fill="#0067B1" d="M58.625 136.645c-.655 2.574-2.073 4.854-4.01 6.564h59.348c193.828 0 340.007 27.598 340.007 27.598l8.004-34.162h-403.349z"/><path stroke="#000" d="M116.63 65.633c-3.28-4.168-9.698-6.277-19.085-6.277h-26.024c1.318.744 2.123 2.043 1.607 4.172l-14.667 60.802c-.492 2.043-1.929 3.342-3.625 4.176h20.716c-1.109-.996-1.819-1.733-1.819-2.85 0-.466.063-.962.183-1.481l6.489-26.876.396.128c7.011 2.304 16.344.167 20.528-1.489 2.389-.977 14.413-6.405 17.189-17.934.333-1.369.585-2.971.585-4.649.001-2.584-.6-5.349-2.473-7.722m-13.509 12.711c-3.227 13.358-13.673 14.433-18.055 14.433-.76 0-2.683-.213-3.102-.325l-.368-.098 6.697-27.748h4.312c4.106 0 7.143 1.198 9.016 3.579 1.918 2.438 2.473 6.145 1.5 10.159M206.94 124.03c-.741-3.524-12.881-60.957-12.881-60.957s-26.709 39.409-37.478 54.938c-3.719 4.041-7.127 4.464-16.112 4.72-4.253.182-8.422 0-10.221-.271l12.738-52.802c.512-2.133 1.765-3.432 3.439-4.173h-19.923c1.318.741 2.125 2.04 1.609 4.173l-13.208 54.744c-.492 2.04-1.927 3.339-3.625 4.173h49.859c-2.354-1.109-2.28-2.595-1.268-4.82.341-.655 3.603-5.661 7.402-11.322h21.513c1.07 5.661 2.013 10.667 2.071 11.598.039 1.765-.555 3.063-3.529 4.545h23.29c-2.659-1.758-3.067-2.781-3.676-4.546m-35.868-17.256c2.629-3.893 12.815-19.392 12.815-19.392s2.051 10.485 3.835 19.392h-16.65zm69.309-6.956l21.73-28.027c1.637-2.133 5.088-5.564 8.163-6.306h-14.592c2.598.466 2.28 2.967.892 4.82l-17.845 23.576-7.259-22.642c-1.4-4.27.325-4.828 2.698-5.755h-24.13c2.494 1.299 2.645 2.229 3.509 4.456l11.78 30.245-5.844 24.216c-.577 2.416-2.676 3.339-4.276 4.173h21.602c-1.384-.834-2.85-2.133-2.361-4.173l5.933-24.583zm172.711-8.724h-13.742l4.901-20.319s14.293.466 17.895.651c4.161.183 5.519 1.947 5.964 4.351l1.835-10.291h-42.193c1.318.741 2.315 2.04 1.8 4.173l-13.212 54.744c-.581 2.416-1.76 3.063-3.808 4.173h20.292c-1.314-1.109-2.28-1.757-1.702-4.173l6.91-27.83h13.742c1.311 0 2.684 1.296 2.652 2.595l2.57-10.672c-.569 1.209-2.586 2.598-3.904 2.598m40.893-20.971c9.073 0 12.703 7.422 13.184 12.808l3.254-15.405c-1.354-.729-2.835-1.299-4.331-1.749-1.707.423-3.459.714-5.259.88-4.416.419-8.717-.012-12.753-1.124-7.384 2.183-15.453 7.434-17.857 17.398-1.632 6.774-.012 12.06 6.961 16.888 6.72 4.723 16.267 5.472 14.157 14.192-1.094 4.544-5.476 9.931-13.809 9.931-9.721 0-13.42-9.094-13.327-15.682l-3.862 17.535c2.963 1.299 9.02 3.711 17.628 3.711 13.099 0 25.119-8.349 27.919-19.947 3.242-13.455-5.483-16.794-12.943-20.412-7.538-3.621-11.54-5.289-10.167-10.95.96-3.991 5.029-8.074 11.205-8.074m-152.092-5.844c-22.773-.182-39.486 15.589-43.612 32.293-4.703 19.109 7.259 32.751 26.853 32.934 18.027.089 37.932-10.3 43.449-32.383 5.382-21.524-10.432-32.754-26.69-32.844m10.481 33.31c-4.181 16.983-14.704 25.701-24.898 25.701-10.292 0-17.539-8.718-12.815-27.931 3.971-16.046 14.37-25.054 25.127-25.054 11.038.001 16.964 9.563 12.586 27.284m54.329-6.495h-13.75l4.905-20.319s14.293.466 17.892.651c4.172.183 5.521 1.947 5.964 4.351l1.834-10.291h-42.185c1.314.741 2.314 2.04 1.791 4.173l-13.203 54.744c-.586 2.416-1.772 3.063-3.819 4.173h20.303c-1.326-1.109-2.287-1.757-1.702-4.173l6.902-27.83h13.746c1.311 0 2.68 1.296 2.648 2.595l2.579-10.672c-.574 1.209-2.59 2.598-3.905 2.598"/></svg>